<?xml version="1.0" standalone="no"?>
<!DOCTYPE svg PUBLIC "-//W3C//DTD SVG 20010904//EN"
 "http://www.w3.org/TR/2001/REC-SVG-20010904/DTD/svg10.dtd">
<svg version="1.0" xmlns="http://www.w3.org/2000/svg"
 width="32.000000pt" height="32.000000pt" viewBox="0 0 32.000000 32.000000"
 preserveAspectRatio="xMidYMid meet">

<g transform="translate(0.000000,32.000000) scale(0.100000,-0.100000)"
fill="#000000" stroke="none">
<path d="M0 160 l0 -160 160 0 160 0 0 160 0 160 -160 0 -160 0 0 -160z m130
29 c0 -5 -20 -9 -45 -9 -29 0 -45 4 -45 13 0 8 14 11 45 9 25 -2 45 -8 45 -13z
m91 11 c28 0 49 -5 49 -11 0 -6 -25 -9 -65 -8 -49 2 -65 6 -65 17 0 9 6 12 16
8 9 -3 38 -6 65 -6z m2 -37 c-35 -2 -91 -2 -125 0 -35 2 -7 3 62 3 69 0 97 -1
63 -3z"/>
</g>
</svg>
