<?xml version="1.0" standalone="no"?>
<!DOCTYPE svg PUBLIC "-//W3C//DTD SVG 20010904//EN"
 "http://www.w3.org/TR/2001/REC-SVG-20010904/DTD/svg10.dtd">
<svg version="1.0" xmlns="http://www.w3.org/2000/svg"
 width="1200.000000pt" height="1200.000000pt" viewBox="0 0 1200.000000 1200.000000"
 preserveAspectRatio="xMidYMid meet">

<g transform="translate(0.000000,1200.000000) scale(0.100000,-0.100000)"
fill="#000000" stroke="12">
<path d="M0 6000 l0 -6000 6000 0 6000 0 0 6000 0 6000 -6000 0 -6000 0 0
-6000z m3713 1700 c25 -28 28 -39 24 -73 -8 -57 -43 -89 -104 -94 -122 -10
-179 126 -79 189 49 30 121 20 159 -22z m2730 0 c25 -28 28 -39 24 -73 -8 -57
-43 -89 -104 -94 -122 -10 -179 126 -79 189 49 30 121 20 159 -22z m-4593
-485 l0 -425 -100 0 -100 0 0 425 0 425 100 0 100 0 0 -425z m4300 345 l0 -80
-220 0 -220 0 0 -110 0 -110 193 -2 192 -3 3 -77 3 -78 -196 0 -195 0 0 -155
0 -155 -100 0 -100 0 0 425 0 425 320 0 320 0 0 -80z m-2974 -131 c57 -18 77
-31 129 -82 73 -74 95 -127 95 -232 0 -105 -22 -158 -95 -232 -53 -53 -71 -64
-134 -83 -181 -55 -363 10 -447 162 -27 49 -29 61 -29 153 0 85 3 106 23 142
86 163 268 231 458 172z m1114 -64 l0 -85 -42 0 c-62 0 -125 -34 -148 -81 -18
-34 -20 -59 -20 -224 l0 -185 -95 0 -95 0 0 325 0 325 90 0 90 0 0 -36 0 -35
35 26 c39 30 104 53 153 54 l32 1 0 -85z m564 51 c121 -59 188 -186 178 -333
l-2 -23 -245 0 c-135 0 -245 -3 -245 -7 0 -5 9 -23 20 -41 44 -72 191 -97 284
-47 26 14 49 25 50 25 2 0 25 -25 50 -55 l47 -54 -48 -35 c-68 -49 -152 -70
-257 -64 -139 9 -240 69 -302 180 -27 49 -29 61 -29 153 0 114 14 152 87 230
70 77 150 106 276 101 64 -3 94 -10 136 -30z m2291 7 c46 -25 85 -63 111 -113
17 -31 19 -64 22 -277 l3 -243 -95 0 -95 0 -3 215 -3 215 -33 32 c-29 30 -38
33 -91 33 -69 0 -106 -21 -133 -76 -15 -29 -18 -63 -18 -226 l0 -193 -95 0
-95 0 0 325 0 325 90 0 90 0 0 -37 0 -36 25 23 c64 60 233 78 320 33z m736 0
c25 -11 62 -37 82 -58 60 -62 67 -98 67 -352 l0 -223 -88 0 -88 0 4 36 5 37
-39 -31 c-85 -66 -234 -71 -324 -9 -126 85 -110 258 30 320 36 17 72 22 178
25 131 4 132 4 132 28 0 13 -13 38 -29 56 -29 33 -30 33 -123 33 -78 0 -100
-4 -136 -23 -24 -13 -45 -22 -47 -20 -13 14 -63 124 -59 130 10 15 84 49 142
63 81 21 233 14 293 -12z m854 0 c46 -25 85 -63 111 -113 17 -31 19 -64 22
-277 l3 -243 -95 0 -95 0 -3 215 -3 215 -33 32 c-29 30 -38 33 -91 33 -69 0
-106 -21 -133 -76 -15 -29 -18 -63 -18 -226 l0 -193 -95 0 -95 0 0 325 0 325
90 0 90 0 0 -37 0 -36 25 23 c64 60 233 78 320 33z m803 -9 c54 -28 127 -105
120 -126 -2 -5 -34 -26 -72 -46 l-68 -36 -17 23 c-44 58 -144 81 -209 47 -85
-44 -116 -154 -69 -246 31 -62 76 -90 144 -90 62 0 102 18 131 57 l20 27 68
-36 c38 -20 70 -41 72 -46 7 -22 -66 -98 -123 -127 -55 -28 -68 -30 -165 -30
-99 0 -110 2 -172 33 -120 59 -188 166 -188 297 0 153 98 279 249 322 28 8 81
11 134 9 73 -3 98 -9 145 -32z m686 2 c121 -59 188 -186 178 -333 l-2 -23
-245 0 c-135 0 -245 -3 -245 -7 0 -5 9 -23 20 -41 44 -72 191 -97 284 -47 26
14 49 25 50 25 2 0 25 -25 50 -55 l47 -54 -48 -35 c-68 -49 -152 -70 -257 -64
-139 9 -240 69 -302 180 -27 49 -29 61 -29 153 0 114 14 152 87 230 70 77 150
106 276 101 64 -3 94 -10 136 -30z m-7999 -196 c49 -121 90 -218 91 -217 2 1
43 99 93 217 l90 215 91 3 c84 3 91 1 86 -15 -3 -10 -64 -155 -135 -323 l-129
-305 -100 -3 -99 -3 -121 288 c-67 158 -128 305 -137 326 l-15 37 98 0 98 0
89 -220z m1495 -105 l0 -325 -95 0 -95 0 0 325 0 325 95 0 95 0 0 -325z m2730
0 l0 -325 -95 0 -95 0 0 325 0 325 95 0 95 0 0 -325z m4350 -1000 l0 -115
-4800 0 -4800 0 0 115 0 115 4800 0 4800 0 0 -115z m-6150 -490 l0 -75 -1350
0 -1350 0 0 75 0 75 1350 0 1350 0 0 -75z m190 65 c48 -26 38 -123 -14 -136
-44 -11 -76 4 -92 41 -29 71 37 132 106 95z m2400 0 c48 -26 38 -123 -14 -136
-44 -11 -76 4 -92 41 -29 71 37 132 106 95z m2810 -65 l0 -75 -1350 0 -1350 0
0 75 0 75 1350 0 1350 0 0 -75z m-3402 -305 c11 -11 24 -36 28 -55 5 -29 10
-35 33 -35 43 -1 81 -43 81 -89 0 -15 6 -21 21 -21 25 0 60 -18 76 -39 9 -12
12 -122 13 -439 l0 -424 -29 -29 -30 -29 -734 2 c-704 3 -736 4 -756 22 -11
10 -23 34 -27 52 -5 28 -11 34 -40 40 -41 8 -74 46 -74 85 0 26 -4 29 -30 29
-19 0 -40 9 -55 25 l-25 24 0 426 0 426 25 24 24 25 739 0 c724 0 739 0 760
-20z"/>
<path d="M2965 7271 c-40 -24 -60 -49 -74 -90 -30 -90 4 -187 81 -227 38 -20
117 -18 158 5 105 56 105 256 0 312 -46 25 -125 25 -165 0z"/>
<path d="M4625 7291 c-43 -19 -70 -51 -81 -95 l-6 -26 156 0 c142 0 156 2 156
18 0 33 -40 83 -83 102 -53 24 -91 25 -142 1z"/>
<path d="M7643 7045 c-62 -26 -54 -103 12 -125 53 -17 118 -5 155 30 24 22 30
36 30 69 l0 41 -82 0 c-48 -1 -97 -7 -115 -15z"/>
<path d="M9995 7291 c-43 -19 -70 -51 -81 -95 l-6 -26 156 0 c142 0 156 2 156
18 0 33 -40 83 -83 102 -53 24 -91 25 -142 1z"/>
<path d="M5173 5283 c-10 -4 -13 -97 -13 -418 0 -367 2 -414 16 -419 29 -11
1404 -7 1425 4 18 10 19 25 19 413 0 300 -3 406 -12 415 -9 9 -181 12 -718 11
-388 0 -711 -3 -717 -6z m372 -108 c0 -41 -3 -50 -19 -53 -22 -5 -36 14 -36
50 0 42 10 59 34 56 18 -3 21 -10 21 -53z m140 0 c0 -41 -3 -50 -19 -53 -22
-5 -36 14 -36 50 0 42 10 59 34 56 18 -3 21 -10 21 -53z m143 24 c3 -25 6 -26
57 -26 51 0 53 1 59 29 5 24 10 29 28 26 19 -2 24 -11 28 -44 4 -31 13 -48 37
-68 50 -42 95 -142 101 -224 8 -112 -44 -242 -113 -288 -18 -12 -25 -26 -27
-57 -2 -35 -7 -43 -26 -45 -18 -3 -23 2 -28 27 -6 30 -8 31 -60 31 -51 0 -54
-1 -54 -25 0 -14 -7 -28 -15 -31 -23 -9 -45 15 -45 50 0 24 -9 41 -36 67 -131
125 -132 363 -3 486 27 25 39 46 39 64 0 43 10 60 34 57 14 -2 22 -11 24 -29z
m307 -24 c0 -41 -3 -50 -19 -53 -22 -5 -36 14 -36 50 0 42 10 59 34 56 18 -3
21 -10 21 -53z m140 0 c0 -41 -3 -50 -19 -53 -22 -5 -36 14 -36 50 0 42 10 59
34 56 18 -3 21 -10 21 -53z m-870 0 c0 -18 -8 -20 -89 -23 -91 -3 -113 4 -102
33 5 13 21 15 98 13 85 -3 93 -5 93 -23z m1150 0 c0 -18 -8 -20 -89 -23 -91
-3 -111 4 -99 35 4 11 26 13 97 11 83 -3 91 -5 91 -23z m-1099 -259 c97 -97
-22 -245 -137 -171 -29 19 -49 59 -49 98 0 31 7 46 34 73 28 28 42 34 76 34
34 0 48 -6 76 -34z m995 17 c37 -22 62 -75 54 -113 -22 -100 -140 -126 -203
-45 -73 92 47 218 149 158z m-906 -378 c0 -41 -3 -50 -19 -53 -24 -5 -36 14
-36 59 0 42 7 51 35 47 17 -3 20 -10 20 -53z m140 0 c0 -41 -3 -50 -19 -53
-22 -5 -36 14 -36 50 0 42 10 59 34 56 18 -3 21 -10 21 -53z m450 0 c0 -41 -3
-50 -19 -53 -22 -5 -36 14 -36 50 0 42 10 59 34 56 18 -3 21 -10 21 -53z m143
2 c3 -51 -14 -71 -43 -47 -30 25 -15 103 19 98 17 -2 22 -11 24 -51z m-878 18
c7 -8 10 -22 6 -30 -8 -23 -184 -22 -193 1 -11 29 25 44 103 44 51 0 75 -4 84
-15z m1148 6 c8 -5 12 -17 10 -27 -3 -17 -14 -19 -94 -22 -74 -2 -93 0 -97 12
-12 31 21 46 96 46 40 0 78 -4 85 -9z"/>
<path d="M5815 5104 c-45 -23 -65 -44 -93 -99 -29 -58 -40 -159 -23 -220 45
-168 209 -230 313 -119 116 123 86 367 -54 440 -36 19 -106 18 -143 -2z"/>
<path d="M5340 4880 c-39 -39 -14 -100 43 -100 55 0 79 73 35 104 -30 21 -54
20 -78 -4z"/>
<path d="M6351 4874 c-25 -32 -26 -43 -5 -72 18 -26 65 -30 88 -6 24 23 20 70
-6 88 -32 23 -54 20 -77 -10z"/>
<path d="M6678 4806 l-3 -364 -24 -26 -24 -26 -679 0 -679 0 3 -27 3 -28 725
0 725 0 0 415 0 415 -22 3 -22 3 -3 -365z"/>
<path d="M6790 4706 c0 -211 -4 -365 -10 -381 -21 -55 -21 -55 -740 -55 l-661
0 3 -22 3 -23 725 0 725 0 0 415 0 415 -22 3 -23 3 0 -355z"/>
</g>
</svg>
